<svg xmlns="http://www.w3.org/2000/svg" width="221.098" height="38.072"><defs><clipPath id="a"><path data-name="Rectangle 1455" fill="none" d="M0 0h221.098v38.072H0z"/></clipPath></defs><g data-name="Group 2324"><g data-name="Group 2323" clip-path="url(#a)"><path data-name="Path 4711" d="M17.9 12.635C18.5 11.463 23.995 0 23.995 0H13.582s-1.317 2.964-2.757 5.927-2.241 4.243-4.693 4.856C3.663 11.4 0 9.466 0 9.466c1.153 3.663 2.675 9.137 8.478 9.96 6.15.872 8.833-5.619 9.425-6.791"/><path data-name="Path 4712" d="M45.942 0H33.451s-8.878 18.182-10.444 21.227c-1.7 3.3-4.073 6.679-8.6 7.367a13.6 13.6 0 0 1-7.9-1.605 17.572 17.572 0 0 0 3.878 7 11.978 11.978 0 0 0 4.322 3.135 9.773 9.773 0 0 0 2.9.817 11.934 11.934 0 0 0 11.271-4.565 37.767 37.767 0 0 0 4.425-7.455Z"/><path data-name="Path 4713" d="M72.087 11.657h7.082l-9.613 25.086h-7.221l-9.613-25.086h7.268l6.049 17.161Z"/><path data-name="Rectangle 1452" d="M83.245 11.657h6.658v25.086h-6.658z"/><path data-name="Rectangle 1453" d="M121.835 11.657h6.658v25.086h-6.658z"/><path data-name="Path 4714" d="M172.005 17.425V27.74c0 .314.011.616.035.9v.008c.2 1.692 1.075 2.282 3.093 2.282h2.431v5.82h-4.446c-4.646 0-7.238-2.131-7.706-6.323a15.479 15.479 0 0 1-.065-1.466V17.425h-4.033v-5.767h1.882c2.495 0 3.3.012 3.3-5.808l.689-.006h4.818v5.815h6.658v5.767Z"/><path data-name="Rectangle 1454" d="M183.915 11.657h6.658v25.086h-6.658z"/><path data-name="Path 4715" d="M214.018 11.657h7.08l-9.613 25.086h-7.221l-9.612-25.086h7.268l6.049 17.161Z"/><path data-name="Path 4716" d="M86.973.365h-.8a3.608 3.608 0 0 0 0 7.215h.8a3.608 3.608 0 1 0 0-7.215"/><path data-name="Path 4717" d="M125.558.339h-.8a3.608 3.608 0 0 0 0 7.215h.8a3.608 3.608 0 1 0 0-7.215"/><path data-name="Path 4718" d="M187.646.341h-.8a3.608 3.608 0 0 0 0 7.215h.8a3.608 3.608 0 1 0 0-7.215"/><path data-name="Path 4719" d="m109.456 21.786-4.079-.75c-2.907-.563-3.7-1.172-3.7-2.251 0-1.36 1.266-2.391 3.8-2.391 2.618 0 4.185 1.093 4.584 2.76l6.294-.809c-.82-4.483-4.59-7.061-10.456-7.061-6.658 0-10.6 3.329-10.6 7.971 0 3.47 2.251 5.861 7.174 6.752l4.126.75c2.86.516 3.751 1.313 3.751 2.485 0 1.594-1.407 2.673-3.939 2.673-2.681 0-4.464-1.194-4.83-3.092l-6.328.814c.669 4.576 4.739 7.482 10.829 7.482 6.658 0 10.644-3.47 10.644-8.393 0-3.751-2.344-6.049-7.268-6.94"/><path data-name="Path 4720" d="M158.772 31.264c-1.205 0-1.777-.513-1.863-1.61v-8.352c0-6.472-3.845-10.036-10.878-10.036-6.291 0-10.451 2.811-11.447 7.354l6.76.87c.387-1.812 2-2.925 4.546-2.925 2.954 0 4.6 1.548 4.6 4.5v.012l-6.542.449c-6.911.364-10.48 3.29-10.48 7.885 0 4.5 3.658 7.6 8.957 7.6 3.359 0 5.995-.964 7.892-3.344l.117-.147c.064-.083.126-.169.188-.253.047-.067.094-.134.138-.2.015-.021.03-.042.044-.065a.091.091 0 0 1 .006.02 6.127 6.127 0 0 0 .768 1.692c.976 1.351 2.659 2.035 4.9 2.035h3.189v-5.485Zm-14.617.636c-2.486 0-3.933-1.126-3.985-2.908-.046-1.513 1.435-2.812 4.84-3.072l5.476-.5v.156a6.323 6.323 0 0 1-6.331 6.32"/><path data-name="Path 4721" d="M165.411 30.426a12.875 12.875 0 0 1-.079-1.461v-4.194h.014v4.189c0 .493.02.984.065 1.466"/></g></g></svg>
